Patient4_TMGait_0pt2_03_right_13_EMG.mot
version=1
nRows=19
nColumns=33
inDegrees=no
endheader
time	1LAddLong	2LGlutMax	3LGlutMed	4LIliopsoas	5LSemiMemb	6LBicFemLong	7LRecFem	8LVastMed	9LVastLat	10LGasMed	11LTibAnt	12lTibPost	13LPeroneusLong	14LSol	15LExtDigLong	16LFlexDigLong	17RAddLong	18RGlutMax	19RGlutMed	20RIliopsoas	21RSemiMemb	22RBicFemLong	23RRecFem	24RVastMed	25RVastLat	26RGasMed	27RTibAnt	28RTibPost	29RPeroneusLong	30RSol	31RExtDigLong	32RFlexDigLong
29.315	-0.002136	-0.028076	-0.069733	0.01236	0.033264	-0.074615	-0.010223	0.011597	0.044708	-0.002136	-0.007629	0.011292	0.03479	-0.031738	-0.007935	0.011444	-0.021667	-0.05661	-0.36346	0.016632	0.13992	0.044556	-0.19424	0.009613	0.11139	-0.003967	-0.16129	-0.006714	0.37796	0.02121	0.00885	-0.019226
29.316	0.011139	-0.025787	-0.059052	0.022125	0.1593	-0.07782	-0.040283	0.006409	0.22018	-0.18555	0.009308	-0.014801	0.049286	0.005341	-0.017548	0.004272	-0.024567	0.037689	0.24765	0.36743	0.1651	0.089111	-0.072327	0.046692	-0.006561	-0.010529	0.112	-0.003967	-0.00412	0.036011	0.005341	-0.022888
29.317	0.009613	-0.024872	-0.09552	-0.005188	0.097656	-0.003662	-0.001068	0.010223	0.2272	-0.17273	0.005951	0.012665	0.032501	0.036621	-0.015259	0.003662	-0.029449	-0.055237	0.85007	0.39063	0.14801	0.059967	-0.063477	-0.003204	-0.03067	-0.009613	0.039368	-0.012665	-0.057526	-0.046692	0.010376	-0.017242
29.318	0.014801	-0.035706	-0.009003	-0.001373	0.043335	0.006256	0.050964	-0.003815	0.15396	0.1207	0.007324	-0.001831	0.035858	0.081635	-0.009155	-0.007782	-0.020142	-0.042572	0.98221	0.12482	0.23575	-0.020905	0.017548	0.046997	0.046997	0.001831	-0.078735	-0.005035	0.067291	0.006561	0.005188	-0.019836
29.319	0.011139	-0.046539	-0.039825	0.004883	0.016632	0.043335	0.13458	-0.004578	0.1239	-0.39124	0.002441	0.025024	0.002441	0.051575	0.000153	-0.002136	0.001984	-0.038452	0.71808	-0.033875	0.10086	-0.062866	0.01358	0.080719	0.059662	-0.007629	0.0383	-0.001221	0.12177	0.049438	0.006104	-0.021057
29.32	0.01236	-0.052643	0.001373	0.022278	0.029907	0.050201	0.21942	0.00061	-0.016327	-0.45959	0.007477	-0.011902	-0.013123	0.06134	-0.007477	-0.004425	0.001831	-0.097046	0.11475	-0.018768	-0.033264	-0.121	-0.00946	0.09079	0.040436	-0.012665	0.02594	-0.004578	0.092773	0.036621	0.007324	-0.020599
29.321	-0.000458	-0.083618	-0.048218	0.036011	0.03067	0.050049	0.15137	-0.000458	-0.22385	-0.1796	0.002289	-0.008087	-0.048523	0.054016	0.005493	0.002747	0.010071	-0.27802	-0.44907	0.074768	-0.036163	-0.057068	0.053406	0.13367	0.067139	-0.016022	0.13687	-0.00824	0.053558	0.012817	0.013275	-0.023193
29.322	-0.010681	-0.039215	0.009155	0.010986	-0.00946	0.092468	0.10223	0.010376	-0.36026	-0.13977	-0.011902	-0.007172	-0.03067	0.028992	0.01297	0.004272	0.005035	-0.18219	0.19699	0.061188	-0.02121	-0.006561	0.11688	0.024109	0.042267	-0.022888	0.44876	-0.004883	-0.007172	-0.045929	0.01297	-0.01358
29.323	-0.016785	-0.058136	0.10468	0.022278	-0.04364	0.11169	0.073547	0.012054	-0.30426	-0.13519	0.004883	-0.004425	-0.007935	0.026855	0.023651	0.005493	0.005035	-0.22201	0.54245	-0.015106	0.032959	0.014038	0.12802	-0.13992	0.005493	-0.000916	0.29648	-0.005035	0.093689	-0.15564	0.010681	-0.01236
29.324	-0.007019	-0.050659	0.050201	0.012512	-0.006714	0.053253	0.038147	-0.000458	-0.12589	-0.08667	0.003662	-0.005798	0.018616	0.027313	0.016785	0.014648	0.014648	-0.2243	0.11337	-0.017548	0.06485	0.036469	0.23193	-0.096893	-0.002594	0.003815	0.37598	-0.00473	0.080566	-0.21484	0.014191	-0.009766
29.325	0.010986	-0.051117	0.020294	0.003052	-0.016937	0.005035	0.054779	0.000916	0.003204	-0.085754	-0.005188	0.009918	0.026855	0.033417	0.021362	0.021515	-0.005493	-0.21622	-0.54138	0.022278	0.10483	0.072327	0.2887	-0.015564	-0.12054	-0.005646	0.41596	-0.007629	-0.034943	-0.18555	0.022125	-0.009308
29.326	-0.002594	-0.046692	0.018768	0.006866	-0.006561	-0.005341	0.069733	0.006714	0.059052	-0.089722	0.003204	-0.001221	0.029755	0.000458	0.024872	0.014191	-0.012054	-0.18875	-0.41016	0.00473	0.092773	0.14603	0.16327	0.07431	-0.21255	-0.002899	-0.044861	-0.005493	-0.038605	-0.13062	0.011444	-0.001526
29.327	0.001526	-0.068207	0.013428	-0.00473	0.035248	-0.044098	0.057373	0.007019	0.13718	-0.061493	-0.001068	-0.001831	0.019226	0.015869	0.020905	0.017242	-0.002747	-0.19806	-0.43533	-0.029144	0.060883	0.11902	-0.096741	0.027161	-0.16998	0.006714	-1.2045	-0.003815	0.22232	-0.26718	0.008392	-0.00824
29.328	0.003357	-0.020752	-0.014648	0.01358	0.042877	-0.000916	0.10208	0.003662	0.19562	-0.025024	0.004578	-0.01297	-0.017395	0.011139	0.019989	0.024261	0.019379	-0.15259	-0.21637	-0.001068	0.018768	0.072937	-0.32974	-0.017242	-0.10193	0.003357	-0.94788	-0.006866	0.13321	-0.21606	0.021973	-0.003357
29.329	0.00061	-0.024719	0.023346	0.016327	0.002289	0.002441	0.09903	0.007629	0.2211	-0.02533	0.006866	0.013733	0.029449	-0.022278	0.019684	0.013275	0.057526	-0.086365	0.072784	0.016327	-0.006104	-0.019379	-0.17151	-0.069122	-0.076904	-0.008392	-0.097961	-0.002441	0.3479	-0.058136	0.016327	-0.005035
29.33	0.003052	-0.019073	0.02243	0.022125	-0.031128	-0.033417	0.07309	0.015411	0.26215	0.002899	-0.007629	-0.008545	-0.000763	-0.024109	0.013733	0.03006	0.071564	-0.077209	0.19531	-0.003357	-0.018311	-0.068665	0.028839	-0.15915	-0.019836	-0.003052	0.029144	-0.005951	0.30762	-0.02533	0.016174	-0.009003
29.331	0.007782	-0.045929	0.044098	0.010834	-0.065155	-0.095825	0.065765	0.009918	0.19653	0.016785	0.006561	-0.008087	0.007629	-0.024261	0.017853	0.018768	0.082092	-0.03006	0.094604	-0.018158	-0.011902	-0.12283	0.18875	-0.1326	0.009155	0.000916	-0.28397	-0.00824	0.13245	-0.068054	0.015106	-0.011749
29.332	0.006866	-0.044556	0.011444	0.000916	-0.03067	-0.087738	0.13016	0.009918	-0.022278	0.000153	-0.00061	-0.017853	-0.011292	-0.031738	0.016937	0.015564	0.068054	-0.11505	-0.037231	-0.043488	0.005035	-0.069427	0.21713	-0.072174	-0.098114	-0.001373	-0.1767	-0.003357	0.011444	-0.002594	0.014801	-0.014038
29.333	-0.004272	-0.042725	-0.071411	-0.01236	-0.019379	-0.046844	0.12329	-0.001831	-0.28885	-0.015717	0.006561	-0.021515	-0.019836	-0.019684	0.012665	0.036774	0.007324	-0.16815	-0.088654	-0.17212	-0.077515	-0.007172	0.30167	0.052032	-0.084076	-0.004272	0.066528	-0.003052	-0.32547	0.073395	0.013428	-0.00824
